<svg width="50" height="50" viewBox="0 0 50 50" fill="none" xmlns="http://www.w3.org/2000/svg">
<rect width="50" height="50" rx="8" fill="#1C4980"/>
<g clip-path="url(#clip0_15806_102528)">
<path d="M13.7188 23.9055C17.6927 23.9055 20.9142 20.6186 20.9142 16.5641C20.9142 12.5095 17.6927 9.22266 13.7188 9.22266C9.74492 9.22266 6.52344 12.5095 6.52344 16.5641C6.52344 20.6186 9.74492 23.9055 13.7188 23.9055Z" fill="white"/>
<path d="M11.7219 19.7645V19.0665C11.2926 19.7318 10.7668 20.0153 9.98342 20.0153C8.73854 20.0153 8.04102 19.2845 8.04102 17.9758V13.875H9.54333V17.6596C9.54333 18.3686 9.86534 18.7176 10.5091 18.7176C11.2496 18.7176 11.7216 18.2596 11.7216 17.5616V13.875H13.224V19.7645H11.7216H11.7219Z" fill="#1C4980"/>
<path d="M16.1544 13.8745V14.7253C16.5837 14.06 17.1095 13.7764 17.8929 13.7764C19.1378 13.7764 19.8353 14.5072 19.8353 15.8159V19.764H18.333V16.1322C18.333 15.4341 18.011 15.0742 17.3672 15.0742C16.6267 15.0742 16.1547 15.5323 16.1547 16.2303V19.764H14.6523V13.8745H16.1547H16.1544Z" fill="#1C4980"/>
<path d="M24.8371 15.772C24.8264 15.2376 24.4721 14.9758 23.7532 14.9758C23.2274 14.9758 22.884 15.1939 22.884 15.5212C22.884 15.7612 22.9912 15.8484 23.4098 15.9793L25.3093 16.5355C26.0713 16.7646 26.4468 17.2554 26.4468 18.0188C26.4468 18.5967 26.1892 19.1422 25.7599 19.4912C25.3307 19.8402 24.719 20.0147 23.9142 20.0147C22.1543 20.0147 21.2207 19.3494 21.1777 18.0516H22.6479C22.7124 18.3678 22.7767 18.4878 22.9377 18.6078C23.1308 18.7496 23.4313 18.8151 23.8284 18.8151C24.5259 18.8151 24.9443 18.5969 24.9443 18.2371C24.9443 17.9971 24.8156 17.8771 24.44 17.7571L22.6479 17.19C22.0899 17.0045 21.9075 16.9065 21.7036 16.6992C21.4996 16.4701 21.3815 16.132 21.3815 15.7395C21.3815 14.5289 22.2937 13.7764 23.7639 13.7764C25.32 13.7764 26.2642 14.5289 26.2858 15.7722H24.8371V15.772Z" fill="white"/>
<path d="M30.0524 15.0087H29.2154V18.2153C29.2154 18.7387 29.3121 18.8587 29.7091 18.8587C29.8272 18.8587 29.9023 18.8478 30.0526 18.8259V19.8947C29.7736 19.9819 29.5267 20.0147 29.1833 20.0147C28.196 20.0147 27.7131 19.5567 27.7131 18.6297V15.0088H26.9727V13.9945H27.7131V12.4131H29.2154V13.9945H30.0524V15.0088V15.0087Z" fill="white"/>
<path d="M36.3945 16.9391C36.3945 18.8368 35.2998 20.0148 33.5292 20.0148C31.7478 20.0148 30.6641 18.837 30.6641 16.8956C30.6641 14.9651 31.7479 13.7764 33.5186 13.7764C35.3321 13.7764 36.3946 14.9433 36.3946 16.9392L36.3945 16.9391ZM32.1664 16.8955C32.1664 18.0297 32.7136 18.7822 33.5292 18.7822C34.3341 18.7822 34.8922 18.0188 34.8922 16.9172C34.8922 15.761 34.3555 15.0085 33.5292 15.0085C32.7137 15.0085 32.1664 15.761 32.1664 16.8953V16.8955Z" fill="white"/>
<path d="M38.9692 14.7471C39.3342 14.0928 39.8492 13.7764 40.5789 13.7764C41.2764 13.7764 41.9954 14.1472 42.3817 14.7034C42.7681 15.2487 43.0042 16.0776 43.0042 16.9065C43.0042 18.6951 41.974 20.0257 40.5789 20.0257C39.8492 20.0257 39.334 19.7204 38.9692 19.066V22.1417H37.4668V13.8746H38.9692V14.7471ZM38.9692 16.9066C38.9692 18.0081 39.4735 18.7499 40.2355 18.7499C40.9867 18.7499 41.5018 18.0081 41.5018 16.9285C41.5018 15.7942 40.9975 15.0526 40.2355 15.0526C39.4735 15.0526 38.9692 15.7942 38.9692 16.9067V16.9066Z" fill="white"/>
</g>
<path fill-rule="evenodd" clip-rule="evenodd" d="M5.5293 27.1468V26.6836L43.9998 26.6836V27.1468L5.5293 27.1468Z" fill="#8DA4BF"/>
<path d="M15.6582 33.1614V29.9258H17.6647V30.346H16.1464V31.3319H17.5209V31.7506H16.1464V33.1614H15.6582Z" fill="white"/>
<path d="M19.0712 33.2104C18.8437 33.2104 18.6451 33.1582 18.4755 33.054C18.306 32.9497 18.1743 32.8038 18.0806 32.6163C17.9868 32.4289 17.94 32.2098 17.94 31.9591C17.94 31.7074 17.9868 31.4872 18.0806 31.2987C18.1743 31.1102 18.306 30.9638 18.4755 30.8595C18.6451 30.7552 18.8437 30.7031 19.0712 30.7031C19.2987 30.7031 19.4972 30.7552 19.6668 30.8595C19.8364 30.9638 19.968 31.1102 20.0618 31.2987C20.1555 31.4872 20.2024 31.7074 20.2024 31.9591C20.2024 32.2098 20.1555 32.4289 20.0618 32.6163C19.968 32.8038 19.8364 32.9497 19.6668 33.054C19.4972 33.1582 19.2987 33.2104 19.0712 33.2104ZM19.0727 32.8138C19.2202 32.8138 19.3424 32.7749 19.4393 32.6969C19.5362 32.619 19.6078 32.5152 19.6541 32.3857C19.7015 32.2561 19.7252 32.1134 19.7252 31.9575C19.7252 31.8027 19.7015 31.6605 19.6541 31.531C19.6078 31.4003 19.5362 31.2955 19.4393 31.2166C19.3424 31.1376 19.2202 31.0981 19.0727 31.0981C18.9242 31.0981 18.801 31.1376 18.703 31.2166C18.6061 31.2955 18.534 31.4003 18.4866 31.531C18.4403 31.6605 18.4171 31.8027 18.4171 31.9575C18.4171 32.1134 18.4403 32.2561 18.4866 32.3857C18.534 32.5152 18.6061 32.619 18.703 32.6969C18.801 32.7749 18.9242 32.8138 19.0727 32.8138Z" fill="white"/>
<path d="M20.7297 33.1614V30.7347H21.1862V31.1202H21.2115C21.2558 30.9896 21.3337 30.8869 21.4453 30.8121C21.558 30.7363 21.6855 30.6983 21.8277 30.6983C21.8572 30.6983 21.8919 30.6994 21.932 30.7015C21.973 30.7036 22.0052 30.7062 22.0283 30.7094V31.1613C22.0094 31.156 21.9757 31.1502 21.9272 31.1439C21.8788 31.1365 21.8303 31.1328 21.7819 31.1328C21.6702 31.1328 21.5707 31.1565 21.4833 31.2039C21.3969 31.2503 21.3284 31.315 21.2779 31.3982C21.2273 31.4804 21.202 31.5741 21.202 31.6795V33.1614H20.7297Z" fill="white"/>
<path d="M22.4371 33.1614V30.7347H22.8906V31.1297H22.9206C22.9711 30.9959 23.0538 30.8916 23.1686 30.8168C23.2834 30.741 23.4209 30.7031 23.581 30.7031C23.7432 30.7031 23.879 30.741 23.9886 30.8168C24.0992 30.8927 24.1808 30.9969 24.2335 31.1297H24.2587C24.3167 31.0001 24.4088 30.8969 24.5352 30.82C24.6616 30.7421 24.8122 30.7031 24.9871 30.7031C25.2072 30.7031 25.3868 30.7721 25.5258 30.9101C25.6659 31.048 25.7359 31.2561 25.7359 31.5341V33.1614H25.2636V31.5783C25.2636 31.414 25.2188 31.295 25.1293 31.2213C25.0397 31.1476 24.9328 31.1107 24.8085 31.1107C24.6548 31.1107 24.5352 31.1581 24.4499 31.2529C24.3646 31.3466 24.3219 31.4672 24.3219 31.6147V33.1614H23.8511V31.5483C23.8511 31.4167 23.8101 31.3108 23.7279 31.2308C23.6457 31.1507 23.5388 31.1107 23.4072 31.1107C23.3177 31.1107 23.235 31.1344 23.1591 31.1818C23.0844 31.2281 23.0238 31.2929 22.9774 31.3761C22.9322 31.4593 22.9095 31.5557 22.9095 31.6652V33.1614H22.4371Z" fill="white"/>
<path d="M27.415 33.2104C27.1759 33.2104 26.97 33.1593 26.7972 33.0571C26.6255 32.9539 26.4928 32.8091 26.3991 32.6227C26.3064 32.4352 26.2601 32.2156 26.2601 31.9638C26.2601 31.7153 26.3064 31.4962 26.3991 31.3066C26.4928 31.117 26.6234 30.969 26.7909 30.8627C26.9594 30.7563 27.1564 30.7031 27.3818 30.7031C27.5187 30.7031 27.6514 30.7257 27.7799 30.771C27.9084 30.8163 28.0238 30.8874 28.1259 30.9843C28.2281 31.0812 28.3087 31.2071 28.3676 31.3619C28.4266 31.5157 28.4561 31.7026 28.4561 31.9228V32.0902H26.5271V31.7363H27.9932C27.9932 31.6121 27.9679 31.502 27.9174 31.4061C27.8668 31.3092 27.7957 31.2329 27.7041 31.1771C27.6135 31.1212 27.5071 31.0933 27.385 31.0933C27.2522 31.0933 27.1364 31.126 27.0374 31.1913C26.9394 31.2555 26.8636 31.3398 26.8099 31.4441C26.7572 31.5473 26.7309 31.6594 26.7309 31.7806V32.0571C26.7309 32.2193 26.7593 32.3572 26.8162 32.471C26.8741 32.5847 26.9547 32.6716 27.0579 32.7317C27.1611 32.7907 27.2817 32.8201 27.4197 32.8201C27.5092 32.8201 27.5909 32.8075 27.6646 32.7822C27.7383 32.7559 27.802 32.7169 27.8558 32.6653C27.9095 32.6137 27.9506 32.55 27.979 32.4741L28.4261 32.5547C28.3903 32.6864 28.326 32.8017 28.2334 32.9007C28.1417 32.9987 28.0264 33.075 27.8874 33.1298C27.7494 33.1835 27.5919 33.2104 27.415 33.2104Z" fill="white"/>
<path d="M28.9802 33.1614V30.7347H29.4368V31.1202H29.4621C29.5064 30.9896 29.5843 30.8869 29.6959 30.8121C29.8086 30.7363 29.9361 30.6983 30.0783 30.6983C30.1078 30.6983 30.1425 30.6994 30.1825 30.7015C30.2236 30.7036 30.2557 30.7062 30.2789 30.7094V31.1613C30.26 31.156 30.2263 31.1502 30.1778 31.1439C30.1294 31.1365 30.0809 31.1328 30.0325 31.1328C29.9208 31.1328 29.8213 31.1565 29.7339 31.2039C29.6475 31.2503 29.579 31.315 29.5285 31.3982C29.4779 31.4804 29.4526 31.5741 29.4526 31.6795V33.1614H28.9802Z" fill="white"/>
<path d="M31.1601 29.9258V33.1614H30.6877V29.9258H31.1601Z" fill="white"/>
<path d="M32.0942 34.0714C32.0236 34.0714 31.9594 34.0656 31.9015 34.054C31.8435 34.0435 31.8004 34.0319 31.7719 34.0193L31.8857 33.6322C31.972 33.6554 32.0489 33.6654 32.1163 33.6622C32.1837 33.6591 32.2432 33.6338 32.2949 33.5864C32.3475 33.539 32.3939 33.4616 32.4339 33.3541L32.4923 33.193L31.6044 30.7347H32.11L32.7246 32.6179H32.7499L33.3644 30.7347H33.8716L32.8715 33.4853C32.8252 33.6117 32.7662 33.7186 32.6946 33.806C32.623 33.8945 32.5376 33.9608 32.4386 34.0051C32.3396 34.0493 32.2248 34.0714 32.0942 34.0714Z" fill="white"/>
<path d="M6.84503 38.8968H5.5293V35.014H6.87157C7.25707 35.014 7.58821 35.0918 7.86501 35.2472C8.14307 35.4014 8.35667 35.6232 8.50581 35.9127C8.65496 36.2021 8.72953 36.5484 8.72953 36.9516C8.72953 37.3561 8.65432 37.7036 8.50392 37.9943C8.35478 38.285 8.13928 38.5081 7.85743 38.6636C7.57684 38.819 7.23937 38.8968 6.84503 38.8968ZM6.23266 38.2882H6.81091C7.08138 38.2882 7.30699 38.2389 7.48773 38.1403C7.66847 38.0405 7.80434 37.892 7.89534 37.6948C7.98635 37.4963 8.03185 37.2486 8.03185 36.9516C8.03185 36.6546 7.98635 36.4081 7.89534 36.2122C7.80434 36.015 7.66973 35.8678 7.49152 35.7705C7.31457 35.6719 7.09465 35.6226 6.83176 35.6226H6.23266V38.2882Z" fill="white"/>
<path d="M10.2055 38.9555C10.0209 38.9555 9.85473 38.9227 9.70685 38.857C9.56023 38.79 9.44395 38.6914 9.35801 38.5612C9.27332 38.431 9.23098 38.2705 9.23098 38.0796C9.23098 37.9153 9.26132 37.7795 9.32199 37.672C9.38265 37.5646 9.46544 37.4787 9.57034 37.4142C9.67525 37.3497 9.79343 37.3011 9.92487 37.2682C10.0576 37.2341 10.1947 37.2094 10.3363 37.1943C10.5069 37.1766 10.6453 37.1608 10.7515 37.1469C10.8576 37.1317 10.9347 37.109 10.9828 37.0786C11.0321 37.047 11.0567 36.9984 11.0567 36.9326V36.9213C11.0567 36.7784 11.0144 36.6679 10.9297 36.5895C10.845 36.5111 10.723 36.4719 10.5638 36.4719C10.3957 36.4719 10.2623 36.5086 10.1638 36.5819C10.0664 36.6552 10.0007 36.7418 9.96658 36.8416L9.32578 36.7506C9.37633 36.5737 9.45975 36.4258 9.57603 36.307C9.69231 36.1869 9.8345 36.0972 10.0026 36.0378C10.1707 35.9771 10.3565 35.9468 10.56 35.9468C10.7003 35.9468 10.8399 35.9632 10.979 35.9961C11.118 36.0289 11.245 36.0833 11.36 36.1591C11.4751 36.2337 11.5673 36.3354 11.6368 36.4644C11.7076 36.5933 11.743 36.7544 11.743 36.9478V38.8968H11.0832V38.4967H11.0605C11.0188 38.5776 10.96 38.6535 10.8842 38.7242C10.8096 38.7938 10.7155 38.85 10.6017 38.893C10.4892 38.9347 10.3571 38.9555 10.2055 38.9555ZM10.3837 38.4512C10.5214 38.4512 10.6409 38.4241 10.742 38.3697C10.8431 38.3141 10.9208 38.2408 10.9752 38.1498C11.0308 38.0588 11.0586 37.9596 11.0586 37.8521V37.509C11.0371 37.5267 11.0005 37.5431 10.9486 37.5583C10.8981 37.5734 10.8412 37.5867 10.778 37.5981C10.7148 37.6095 10.6523 37.6196 10.5903 37.6284C10.5284 37.6373 10.4747 37.6449 10.4292 37.6512C10.3268 37.6651 10.2352 37.6878 10.1543 37.7194C10.0734 37.751 10.0096 37.7953 9.96279 37.8521C9.91603 37.9078 9.89264 37.9798 9.89264 38.0683C9.89264 38.1947 9.93878 38.2901 10.031 38.3545C10.1233 38.419 10.2409 38.4512 10.3837 38.4512Z" fill="white"/>
<path d="M12.4331 38.8968V35.9847H13.0986V36.4701H13.1289C13.182 36.302 13.273 36.1724 13.4019 36.0814C13.5321 35.9891 13.6806 35.943 13.8474 35.943C13.8853 35.943 13.9277 35.9449 13.9745 35.9487C14.0225 35.9512 14.0623 35.9556 14.0939 35.962V36.5933C14.0648 36.5832 14.0187 36.5743 13.9555 36.5667C13.8936 36.5579 13.8335 36.5535 13.7754 36.5535C13.6503 36.5535 13.5378 36.5806 13.4379 36.635C13.3393 36.6881 13.2616 36.762 13.2047 36.8568C13.1479 36.9516 13.1194 37.0609 13.1194 37.1848V38.8968H12.4331Z" fill="white"/>
<path d="M15.7191 38.9536C15.4272 38.9536 15.175 38.893 14.9627 38.7716C14.7516 38.649 14.5892 38.4759 14.4754 38.2522C14.3617 38.0272 14.3048 37.7624 14.3048 37.4578C14.3048 37.1583 14.3617 36.8954 14.4754 36.6691C14.5905 36.4416 14.751 36.2647 14.957 36.1383C15.163 36.0106 15.405 35.9468 15.6831 35.9468C15.8626 35.9468 16.0319 35.9759 16.1912 36.034C16.3517 36.0909 16.4933 36.1794 16.6159 36.2994C16.7397 36.4195 16.8371 36.5724 16.9078 36.7582C16.9786 36.9428 17.014 37.1627 17.014 37.418V37.6284H14.6271V37.1658H16.3561C16.3549 37.0344 16.3264 36.9175 16.2708 36.8151C16.2152 36.7115 16.1375 36.6299 16.0376 36.5705C15.939 36.5111 15.824 36.4814 15.6926 36.4814C15.5523 36.4814 15.4291 36.5156 15.3229 36.5838C15.2167 36.6508 15.1339 36.7393 15.0745 36.8492C15.0164 36.9579 14.9867 37.0774 14.9854 37.2075V37.6114C14.9854 37.7807 15.0164 37.9261 15.0783 38.0474C15.1403 38.1675 15.2268 38.2598 15.3381 38.3242C15.4493 38.3874 15.5795 38.419 15.7286 38.419C15.8285 38.419 15.9188 38.4051 15.9997 38.3773C16.0806 38.3482 16.1508 38.3059 16.2102 38.2503C16.2696 38.1947 16.3144 38.1258 16.3448 38.0436L16.9856 38.1157C16.9451 38.285 16.868 38.4329 16.7543 38.5593C16.6418 38.6844 16.4977 38.7817 16.322 38.8513C16.1463 38.9195 15.9454 38.9536 15.7191 38.9536Z" fill="white"/>
<path d="M17.587 38.8968V38.3887L18.935 37.0672C19.0639 36.9371 19.1713 36.8214 19.2573 36.7203C19.3432 36.6192 19.4077 36.5212 19.4507 36.4264C19.4936 36.3317 19.5151 36.2305 19.5151 36.1231C19.5151 36.0005 19.4873 35.8956 19.4317 35.8084C19.3761 35.7199 19.2996 35.6517 19.2023 35.6036C19.105 35.5556 18.9944 35.5316 18.8705 35.5316C18.7429 35.5316 18.631 35.5581 18.535 35.6112C18.4389 35.663 18.3643 35.737 18.3113 35.833C18.2594 35.9291 18.2335 36.0435 18.2335 36.1762H17.5643C17.5643 35.9297 17.6205 35.7155 17.733 35.5335C17.8455 35.3515 18.0003 35.2106 18.1975 35.1107C18.3959 35.0109 18.6234 34.9609 18.88 34.9609C19.1404 34.9609 19.3692 35.0096 19.5663 35.1069C19.7635 35.2042 19.9164 35.3376 20.0251 35.5069C20.1351 35.6763 20.1901 35.8697 20.1901 36.0871C20.1901 36.2324 20.1623 36.3753 20.1066 36.5156C20.051 36.6558 19.9531 36.8113 19.8128 36.9819C19.6738 37.1526 19.4785 37.3592 19.227 37.6019L18.5577 38.2825V38.309H20.2488V38.8968H17.587Z" fill="white"/>
<path d="M24.2643 36.3241H23.5552C23.535 36.2078 23.4977 36.1048 23.4434 36.015C23.389 35.924 23.3214 35.8469 23.2405 35.7837C23.1596 35.7205 23.0674 35.6732 22.9637 35.6416C22.8613 35.6087 22.7507 35.5923 22.6319 35.5923C22.4209 35.5923 22.2338 35.6453 22.0708 35.7515C21.9077 35.8564 21.7801 36.0106 21.6878 36.2141C21.5955 36.4163 21.5494 36.6634 21.5494 36.9554C21.5494 37.2524 21.5955 37.5027 21.6878 37.7062C21.7813 37.9084 21.909 38.0613 22.0708 38.165C22.2338 38.2673 22.4202 38.3185 22.63 38.3185C22.7463 38.3185 22.855 38.3034 22.9561 38.273C23.0585 38.2414 23.1501 38.1953 23.231 38.1346C23.3132 38.074 23.3821 37.9994 23.4377 37.9109C23.4946 37.8224 23.5337 37.7213 23.5552 37.6076L24.2643 37.6114C24.2377 37.7959 24.1802 37.9691 24.0918 38.1308C24.0046 38.2926 23.8902 38.4354 23.7486 38.5593C23.6071 38.6819 23.4415 38.778 23.2519 38.8475C23.0623 38.9157 22.8519 38.9498 22.6206 38.9498C22.2793 38.9498 21.9747 38.8709 21.7068 38.7129C21.4388 38.5549 21.2277 38.3267 21.0735 38.0285C20.9193 37.7302 20.8422 37.3725 20.8422 36.9554C20.8422 36.537 20.92 36.1794 21.0754 35.8823C21.2309 35.584 21.4426 35.3559 21.7106 35.1979C21.9785 35.0399 22.2818 34.9609 22.6206 34.9609C22.8367 34.9609 23.0377 34.9913 23.2235 35.0519C23.4092 35.1126 23.5748 35.2017 23.7202 35.3193C23.8655 35.4355 23.985 35.5784 24.0785 35.7477C24.1733 35.9158 24.2352 36.1079 24.2643 36.3241Z" fill="white"/>
<path d="M26.1483 38.9536C25.8639 38.9536 25.6175 38.8911 25.4089 38.7659C25.2004 38.6408 25.0386 38.4658 24.9236 38.2408C24.8098 38.0158 24.7529 37.7529 24.7529 37.4521C24.7529 37.1513 24.8098 36.8878 24.9236 36.6615C25.0386 36.4353 25.2004 36.2596 25.4089 36.1345C25.6175 36.0094 25.8639 35.9468 26.1483 35.9468C26.4327 35.9468 26.6792 36.0094 26.8877 36.1345C27.0962 36.2596 27.2574 36.4353 27.3711 36.6615C27.4862 36.8878 27.5437 37.1513 27.5437 37.4521C27.5437 37.7529 27.4862 38.0158 27.3711 38.2408C27.2574 38.4658 27.0962 38.6408 26.8877 38.7659C26.6792 38.8911 26.4327 38.9536 26.1483 38.9536ZM26.1521 38.4038C26.3063 38.4038 26.4352 38.3615 26.5389 38.2768C26.6425 38.1909 26.7196 38.0759 26.7702 37.9318C26.822 37.7877 26.8479 37.6272 26.8479 37.4502C26.8479 37.272 26.822 37.1109 26.7702 36.9668C26.7196 36.8214 26.6425 36.7058 26.5389 36.6198C26.4352 36.5339 26.3063 36.4909 26.1521 36.4909C25.9941 36.4909 25.8627 36.5339 25.7578 36.6198C25.6541 36.7058 25.5764 36.8214 25.5246 36.9668C25.474 37.1109 25.4487 37.272 25.4487 37.4502C25.4487 37.6272 25.474 37.7877 25.5246 37.9318C25.5764 38.0759 25.6541 38.1909 25.7578 38.2768C25.8627 38.3615 25.9941 38.4038 26.1521 38.4038Z" fill="white"/>
<path d="M28.1262 38.8968V35.9847H28.7821V36.4795H28.8163C28.8769 36.3127 28.9774 36.1825 29.1177 36.089C29.258 35.9942 29.4255 35.9468 29.6201 35.9468C29.8173 35.9468 29.9835 35.9948 30.1187 36.0909C30.2552 36.1857 30.3513 36.3152 30.4069 36.4795H30.4372C30.5017 36.3177 30.6104 36.1888 30.7633 36.0928C30.9175 35.9955 31.1002 35.9468 31.3112 35.9468C31.5792 35.9468 31.7978 36.0315 31.9672 36.2008C32.1366 36.3702 32.2213 36.6173 32.2213 36.9421V38.8968H31.5331V37.0483C31.5331 36.8676 31.485 36.7355 31.389 36.6521C31.2929 36.5674 31.1754 36.525 31.0363 36.525C30.8708 36.525 30.7412 36.5769 30.6477 36.6805C30.5554 36.7829 30.5093 36.9162 30.5093 37.0805V38.8968H29.8362V37.0199C29.8362 36.8694 29.7907 36.7494 29.6997 36.6596C29.61 36.5699 29.4925 36.525 29.3471 36.525C29.2485 36.525 29.1588 36.5503 29.0779 36.6009C28.997 36.6502 28.9326 36.7203 28.8845 36.8113C28.8365 36.901 28.8125 37.0059 28.8125 37.126V38.8968H28.1262Z" fill="white"/>
<path d="M32.9175 39.9888V35.9847H33.5924V36.4663H33.6323C33.6676 36.3955 33.7176 36.3203 33.782 36.2407C33.8465 36.1598 33.9337 36.0909 34.0437 36.034C34.1536 35.9759 34.2939 35.9468 34.4645 35.9468C34.6895 35.9468 34.8924 36.0043 35.0731 36.1193C35.2551 36.2331 35.3992 36.4018 35.5054 36.6255C35.6128 36.848 35.6665 37.121 35.6665 37.4445C35.6665 37.7643 35.6141 38.036 35.5092 38.2598C35.4043 38.4835 35.2614 38.6541 35.0807 38.7716C34.9 38.8892 34.6952 38.948 34.4664 38.948C34.2996 38.948 34.1612 38.9201 34.0512 38.8645C33.9413 38.8089 33.8528 38.7419 33.7858 38.6636C33.7201 38.5839 33.6689 38.5087 33.6323 38.438H33.6038V39.9888H32.9175ZM33.5905 37.4407C33.5905 37.6291 33.6171 37.794 33.6702 37.9356C33.7245 38.0771 33.8023 38.1877 33.9034 38.2673C34.0057 38.3457 34.1296 38.3849 34.275 38.3849C34.4266 38.3849 34.5536 38.3444 34.656 38.2635C34.7584 38.1814 34.8355 38.0695 34.8873 37.928C34.9404 37.7852 34.9669 37.6227 34.9669 37.4407C34.9669 37.26 34.941 37.0995 34.8892 36.9592C34.8374 36.8189 34.7603 36.7089 34.6579 36.6293C34.5555 36.5497 34.4279 36.5099 34.275 36.5099C34.1283 36.5099 34.0038 36.5484 33.9015 36.6255C33.7991 36.7026 33.7214 36.8107 33.6683 36.9497C33.6165 37.0887 33.5905 37.2524 33.5905 37.4407Z" fill="white"/>
<path d="M37.5434 38.9536C37.2515 38.9536 36.9993 38.893 36.787 38.7716C36.5759 38.649 36.4135 38.4759 36.2997 38.2522C36.186 38.0272 36.1291 37.7624 36.1291 37.4578C36.1291 37.1583 36.186 36.8954 36.2997 36.6691C36.4148 36.4416 36.5753 36.2647 36.7813 36.1383C36.9873 36.0106 37.2294 35.9468 37.5074 35.9468C37.6869 35.9468 37.8563 35.9759 38.0155 36.034C38.176 36.0909 38.3176 36.1794 38.4402 36.2994C38.564 36.4195 38.6614 36.5724 38.7321 36.7582C38.8029 36.9428 38.8383 37.1627 38.8383 37.418V37.6284H36.4514V37.1658H38.1804C38.1792 37.0344 38.1507 36.9175 38.0951 36.8151C38.0395 36.7115 37.9618 36.6299 37.8619 36.5705C37.7634 36.5111 37.6483 36.4814 37.5169 36.4814C37.3766 36.4814 37.2534 36.5156 37.1472 36.5838C37.041 36.6508 36.9582 36.7393 36.8988 36.8492C36.8407 36.9579 36.811 37.0774 36.8097 37.2075V37.6114C36.8097 37.7807 36.8407 37.9261 36.9026 38.0474C36.9646 38.1675 37.0511 38.2598 37.1624 38.3242C37.2736 38.3874 37.4038 38.419 37.5529 38.419C37.6528 38.419 37.7431 38.4051 37.824 38.3773C37.9049 38.3482 37.9751 38.3059 38.0345 38.2503C38.0939 38.1947 38.1387 38.1258 38.1691 38.0436L38.8099 38.1157C38.7694 38.285 38.6923 38.4329 38.5786 38.5593C38.4661 38.6844 38.322 38.7817 38.1463 38.8513C37.9706 38.9195 37.7697 38.9536 37.5434 38.9536Z" fill="white"/>
<path d="M40.8731 35.9847V36.5156H39.199V35.9847H40.8731ZM39.6123 35.287H40.2986V38.0209C40.2986 38.1131 40.3125 38.1839 40.3403 38.2332C40.3694 38.2812 40.4073 38.3141 40.4541 38.3318C40.5008 38.3495 40.5527 38.3583 40.6095 38.3583C40.6525 38.3583 40.6917 38.3552 40.7271 38.3489C40.7637 38.3425 40.7915 38.3369 40.8105 38.3318L40.9261 38.8683C40.8895 38.881 40.837 38.8949 40.7688 38.91C40.7018 38.9252 40.6196 38.9341 40.5223 38.9366C40.3504 38.9416 40.1956 38.9157 40.0578 38.8588C39.9201 38.8007 39.8107 38.711 39.7299 38.5896C39.6502 38.4683 39.611 38.3166 39.6123 38.1346V35.287Z" fill="white"/>
<path d="M42.7049 38.9536C42.413 38.9536 42.1608 38.893 41.9485 38.7716C41.7374 38.649 41.575 38.4759 41.4613 38.2522C41.3475 38.0272 41.2906 37.7624 41.2906 37.4578C41.2906 37.1583 41.3475 36.8954 41.4613 36.6691C41.5763 36.4416 41.7368 36.2647 41.9428 36.1383C42.1488 36.0106 42.3909 35.9468 42.6689 35.9468C42.8484 35.9468 43.0178 35.9759 43.177 36.034C43.3375 36.0909 43.4791 36.1794 43.6017 36.2994C43.7256 36.4195 43.8229 36.5724 43.8937 36.7582C43.9644 36.9428 43.9998 37.1627 43.9998 37.418V37.6284H41.6129V37.1658H43.342C43.3407 37.0344 43.3123 36.9175 43.2566 36.8151C43.201 36.7115 43.1233 36.6299 43.0234 36.5705C42.9249 36.5111 42.8098 36.4814 42.6784 36.4814C42.5381 36.4814 42.4149 36.5156 42.3087 36.5838C42.2025 36.6508 42.1198 36.7393 42.0603 36.8492C42.0022 36.9579 41.9725 37.0774 41.9712 37.2075V37.6114C41.9712 37.7807 42.0022 37.9261 42.0641 38.0474C42.1261 38.1675 42.2126 38.2598 42.3239 38.3242C42.4351 38.3874 42.5653 38.419 42.7144 38.419C42.8143 38.419 42.9046 38.4051 42.9855 38.3773C43.0664 38.3482 43.1366 38.3059 43.196 38.2503C43.2554 38.1947 43.3002 38.1258 43.3306 38.0436L43.9714 38.1157C43.9309 38.285 43.8538 38.4329 43.7401 38.5593C43.6276 38.6844 43.4835 38.7817 43.3078 38.8513C43.1321 38.9195 42.9312 38.9536 42.7049 38.9536Z" fill="white"/>
<defs>
<clipPath id="clip0_15806_102528">
<rect width="36.4816" height="14.6816" fill="white" transform="translate(6.52344 9.22266)"/>
</clipPath>
</defs>
</svg>
