<svg width="14" height="15" viewBox="0 0 14 15" fill="none" xmlns="http://www.w3.org/2000/svg">
<g clip-path="url(#clip0_5025_34180)">
<path d="M7.00065 10.4173C7.64232 10.4173 8.16732 9.89232 8.16732 9.25065C8.16732 8.60898 7.64232 8.08398 7.00065 8.08398C6.35898 8.08398 5.83398 8.60898 5.83398 9.25065C5.83398 9.89232 6.35898 10.4173 7.00065 10.4173ZM10.5007 5.16732H9.91732V4.00065C9.91732 2.39065 8.61065 1.08398 7.00065 1.08398C5.39065 1.08398 4.08398 2.39065 4.08398 4.00065H5.19232C5.19232 3.00315 6.00315 2.19232 7.00065 2.19232C7.99815 2.19232 8.80899 3.00315 8.80899 4.00065V5.16732H3.50065C2.85898 5.16732 2.33398 5.69232 2.33398 6.33398V12.1673C2.33398 12.809 2.85898 13.334 3.50065 13.334H10.5007C11.1423 13.334 11.6673 12.809 11.6673 12.1673V6.33398C11.6673 5.69232 11.1423 5.16732 10.5007 5.16732ZM10.5007 12.1673H3.50065V6.33398H10.5007V12.1673Z" fill="#0073E6"/>
</g>
<defs>
<clipPath id="clip0_5025_34180">
<rect width="14" height="14" fill="white" transform="translate(0 0.5)"/>
</clipPath>
</defs>
</svg>
