<svg width="84" height="80" viewBox="0 0 84 80" fill="none" xmlns="http://www.w3.org/2000/svg">
<g clip-path="url(#clip0_16586_95984)">
<path d="M75.8809 53.7906C75.8809 64.8861 66.8861 73.8809 55.7906 73.8809C44.695 73.8809 35.7003 64.8861 35.7003 53.7906C35.7003 42.695 44.695 33.7003 55.7906 33.7003C66.8861 33.7003 75.8809 42.695 75.8809 53.7906ZM55.7906 74.3809C67.1623 74.3809 76.3809 65.1623 76.3809 53.7906C76.3809 42.4189 67.1623 33.2003 55.7906 33.2003C44.4189 33.2003 35.2003 42.4189 35.2003 53.7906C35.2003 65.1623 44.4189 74.3809 55.7906 74.3809ZM84.017 53.7906C84.017 69.3796 71.3796 82.017 55.7906 82.017C40.2015 82.017 27.5641 69.3796 27.5641 53.7906C27.5641 38.2015 40.2015 25.5641 55.7906 25.5641C71.3796 25.5641 84.017 38.2015 84.017 53.7906ZM55.7906 82.517C71.6557 82.517 84.517 69.6557 84.517 53.7906C84.517 37.9254 71.6557 25.0641 55.7906 25.0641C39.9254 25.0641 27.0641 37.9254 27.0641 53.7906C27.0641 69.6557 39.9254 82.517 55.7906 82.517ZM92.1531 53.5C92.1531 73.743 75.743 90.1531 55.5 90.1531C35.257 90.1531 18.8469 73.743 18.8469 53.5C18.8469 33.257 35.257 16.8469 55.5 16.8469C75.743 16.8469 92.1531 33.257 92.1531 53.5ZM55.5 90.6531C76.0191 90.6531 92.6531 74.0191 92.6531 53.5C92.6531 32.9809 76.0191 16.3469 55.5 16.3469C34.9809 16.3469 18.3469 32.9809 18.3469 53.5C18.3469 74.0191 34.9809 90.6531 55.5 90.6531ZM101.452 53.5C101.452 78.8783 80.8783 99.4516 55.5 99.4516C30.1216 99.4516 9.54843 78.8783 9.54843 53.5C9.54843 28.1216 30.1216 7.54843 55.5 7.54843C80.8783 7.54843 101.452 28.1216 101.452 53.5ZM55.5 99.9516C81.1545 99.9516 101.952 79.1545 101.952 53.5C101.952 27.8455 81.1545 7.04843 55.5 7.04843C29.8455 7.04843 9.04843 27.8455 9.04843 53.5C9.04843 79.1545 29.8455 99.9516 55.5 99.9516ZM110.75 53.5C110.75 84.0137 86.0137 108.75 55.5 108.75C24.9863 108.75 0.25 84.0137 0.25 53.5C0.25 22.9863 24.9863 -1.75 55.5 -1.75C86.0137 -1.75 110.75 22.9863 110.75 53.5Z" stroke="url(#paint0_radial_16586_95984)" stroke-width="0.5"/>
<path d="M48.5421 25.5283L47.0822 27.6076L47.7103 30.0694L45.631 28.6095L43.1691 29.2376L44.6291 27.1583L44.001 24.6964L46.0803 26.1564L48.5421 25.5283Z" fill="white"/>
<path d="M48.8254 25.1963L47.3654 27.2756L47.9935 29.7374L45.9142 28.2774L43.4523 28.9056L44.9123 26.8262L44.2842 24.3644L46.3635 25.8244L48.8254 25.1963Z" fill="#245DB0"/>
<path d="M70.2701 14.922L70.6226 18.7176L73.7335 20.9207L69.9379 21.2732L67.7347 24.3841L67.3822 20.5884L64.2714 18.3853L68.067 18.0328L70.2701 14.922Z" fill="white"/>
<path d="M70.2662 14.2677L70.6187 18.0633L73.7296 20.2664L69.9339 20.6189L67.7308 23.7298L67.3783 19.9341L64.2675 17.731L68.0631 17.3785L70.2662 14.2677Z" fill="#245DB0"/>
<path d="M67.3826 67.7061L69.1298 68.4662L70.8442 67.6346L70.0841 69.3818L70.9157 71.0962L69.1684 70.3361L67.4541 71.1677L68.2142 69.4205L67.3826 67.7061Z" fill="white"/>
<path d="M67.0915 67.5518L68.8388 68.3119L70.5532 67.4803L69.7931 69.2275L70.6247 70.9419L68.8774 70.1818L67.1631 71.0134L67.9232 69.2662L67.0915 67.5518Z" fill="#245DB0"/>
</g>
<defs>
<radialGradient id="paint0_radial_16586_95984" cx="0" cy="0" r="1" gradientUnits="userSpaceOnUse" gradientTransform="translate(53.466 53.7906) rotate(87.962) scale(71.2545)">
<stop stop-color="white"/>
<stop offset="1" stop-color="white" stop-opacity="0"/>
</radialGradient>
<clipPath id="clip0_16586_95984">
<rect width="84" height="80" fill="white"/>
</clipPath>
</defs>
</svg>
